<svg width="516" height="516" viewBox="0 0 516 516" fill="none" xmlns="http://www.w3.org/2000/svg">
<g clip-path="url(#clip0_1_5)">
<path d="M159.719 2.57636C143.552 1.12851 128.557 11.1356 124.497 26.8538L109.938 83.1894C297.581 87.8418 425.058 212.394 433.83 398.747L490.699 382.713C506.4 378.283 516.101 362.919 514.159 346.708C492.472 166.023 341.704 18.9342 159.719 2.57636ZM101.75 114.836L3.59465 494.768C2.88109 497.528 2.90803 500.428 3.67277 503.174C4.4375 505.92 5.91298 508.416 7.95036 510.41C9.98774 512.404 12.515 513.826 15.2771 514.531C18.0392 515.237 20.9385 515.201 23.6826 514.429L402.21 407.638C397.159 232.769 277.827 116.05 101.75 114.876L101.75 114.836ZM130.706 418.56C124.377 418.588 118.182 416.739 112.904 413.246C107.626 409.754 103.502 404.774 101.054 398.938C98.6056 393.102 97.9432 386.67 99.1502 380.458C100.357 374.245 103.379 368.529 107.835 364.034C112.29 359.539 117.978 356.466 124.18 355.203C130.382 353.941 136.819 354.546 142.677 356.942C148.535 359.338 153.551 363.417 157.09 368.663C160.63 373.91 162.534 380.089 162.563 386.417C162.6 394.904 159.265 403.059 153.291 409.087C147.317 415.114 139.193 418.522 130.706 418.56ZM178.027 266.347C171.698 266.376 165.503 264.526 160.225 261.034C154.947 257.541 150.823 252.562 148.375 246.725C145.927 240.889 145.264 234.458 146.471 228.245C147.678 222.032 150.7 216.317 155.156 211.821C159.611 207.326 165.299 204.253 171.501 202.991C177.703 201.728 184.14 202.333 189.998 204.729C195.856 207.125 200.872 211.204 204.411 216.451C207.951 221.697 209.855 227.876 209.884 234.205C209.921 242.692 206.586 250.846 200.612 256.874C194.638 262.902 186.514 266.309 178.027 266.347ZM282.49 369.882C276.161 369.91 269.966 368.061 264.688 364.568C259.41 361.076 255.286 356.096 252.838 350.26C250.39 344.424 249.727 337.992 250.934 331.78C252.141 325.567 255.164 319.851 259.619 315.356C264.074 310.861 269.762 307.788 275.964 306.525C282.166 305.263 288.603 305.868 294.461 308.264C300.319 310.66 305.335 314.739 308.875 319.985C312.414 325.232 314.319 331.411 314.347 337.739C314.385 346.226 311.05 354.381 305.075 360.408C299.101 366.436 290.977 369.844 282.49 369.882Z" fill="#FF5353"/>
</g>
<defs>
<clipPath id="clip0_1_5">
<rect width="512" height="512" fill="white" transform="translate(0.850098 3.13556) rotate(-0.255765)"/>
</clipPath>
</defs>
</svg>
