<svg width="512" height="512" viewBox="0 0 512 512" fill="none" xmlns="http://www.w3.org/2000/svg">
<g clip-path="url(#clip0_1_3)">
<path d="M158.87 0.15001C142.71 -1.36999 127.67 8.57001 123.54 24.27L108.73 80.54C296.35 86.03 423.27 211.15 431.21 397.54L488.15 381.76C503.87 377.4 513.64 362.08 511.77 345.86C490.89 165.08 340.78 17.32 158.87 0.15001ZM100.4 112.15L0.550019 491.64C-0.175858 494.397 -0.161856 497.296 0.590613 500.046C1.34308 502.796 2.8074 505.298 4.83586 507.301C6.86432 509.305 9.38517 510.737 12.1441 511.455C14.9031 512.173 17.8025 512.151 20.55 511.39L399.55 406.29C395.28 231.4 276.47 114.15 100.4 112.19V112.15ZM128 416C121.671 416 115.484 414.123 110.222 410.607C104.959 407.091 100.858 402.093 98.4359 396.246C96.0139 390.399 95.3802 383.965 96.6149 377.757C97.8496 371.55 100.897 365.848 105.373 361.373C109.848 356.897 115.55 353.85 121.757 352.615C127.965 351.38 134.399 352.014 140.246 354.436C146.093 356.858 151.091 360.959 154.607 366.222C158.123 371.484 160 377.671 160 384C160 392.487 156.629 400.626 150.627 406.627C144.626 412.629 136.487 416 128 416ZM176 264C169.671 264 163.484 262.123 158.222 258.607C152.959 255.091 148.858 250.093 146.436 244.246C144.014 238.399 143.38 231.965 144.615 225.757C145.85 219.55 148.897 213.848 153.373 209.373C157.848 204.897 163.55 201.85 169.757 200.615C175.965 199.38 182.399 200.014 188.246 202.436C194.093 204.858 199.091 208.959 202.607 214.222C206.123 219.484 208 225.671 208 232C208 240.487 204.629 248.626 198.627 254.627C192.626 260.629 184.487 264 176 264ZM280 368C273.671 368 267.484 366.123 262.222 362.607C256.959 359.091 252.858 354.093 250.436 348.246C248.014 342.399 247.38 335.965 248.615 329.757C249.85 323.55 252.897 317.848 257.373 313.373C261.848 308.897 267.55 305.85 273.757 304.615C279.965 303.38 286.399 304.014 292.246 306.436C298.093 308.858 303.091 312.959 306.607 318.222C310.123 323.484 312 329.671 312 336C312 344.487 308.629 352.626 302.627 358.627C296.626 364.629 288.487 368 280 368Z" fill="#E0E0E0"/>
</g>
<defs>
<clipPath id="clip0_1_3">
<rect width="512" height="512" fill="white"/>
</clipPath>
</defs>
</svg>
